<svg width="132" height="35" viewBox="0 0 132 35" fill="none" xmlns="http://www.w3.org/2000/svg">
<g clip-path="url(#clip0_7_70)">
<path d="M34.8651 14.7386C38.8031 8.66928 41.1339 4.02708 44.9203 3.60272C38.0759 4.36216 37.3291 3.46086 32.3913 10.758C33.165 12.0017 33.9778 13.3286 34.8651 14.7386ZM43.1163 8.07739C48.983 11.2435 48.5442 24.0316 43.1163 26.9275C44.3569 27.9804 45.5742 28.159 46.9223 27.8691C49.7151 27.2687 52.4651 23.222 52.4651 17.4817C52.4651 13.6025 51.2331 10.3031 49.0563 8.25227C47.3892 6.68081 44.6967 6.48637 43.1163 8.07739ZM26.6273 7.97222C23.3188 3.99039 19.2524 3.39238 15.8058 5.0152C18.2172 5.4102 19.8037 6.56831 21.428 8.43937C23.2296 10.5098 25.1032 13.5328 27.8178 17.5232C22.9289 24.725 20.7203 29.1581 15.7997 29.9872C17.2115 30.6644 18.7846 30.9329 20.3409 30.7624C21.8973 30.5918 23.375 29.9891 24.607 29.0224C27.3729 26.8847 29.6181 22.8075 33.0403 17.5269C30.4651 13.5512 28.4362 10.149 26.6273 7.97222ZM34.8651 20.2858C33.99 21.6861 33.1797 23.0215 32.4023 24.2799C37.2912 31.4951 37.9659 30.6256 44.9167 31.396C41.2439 30.9851 39.0854 26.7905 34.8651 20.2858Z" fill="white"/>
<path d="M16.7982 0.0171204L11.704 0.933088C4.74955 2.18414 0.345885 9.29298 0.014663 16.6904C-0.295781 24.6675 4.22644 32.7217 11.704 34.0669L16.7994 34.9829C9.35611 33.6377 4.862 25.5664 4.862 17.3374C4.862 12.5264 6.42155 7.65915 9.76066 4.05031C11.6392 2.02271 14.0678 0.506289 16.7982 0.0171204C9.35611 1.36233 7.31622 1.72187 16.7982 0.0171204ZM58.8842 5.34172H60.8288V20.9058H58.8842V5.34172ZM63.2121 5.34172H65.2398V7.59923H63.2121V5.34172ZM63.2537 9.6782H65.1982V20.9119H63.2537V9.6782ZM67.5608 9.6782H69.4845V11.3463H69.5444C69.8694 10.7501 70.3506 10.2539 70.9364 9.91111C71.5222 9.56827 72.1903 9.39177 72.8689 9.40059C74.228 9.40059 75.3133 10.1111 75.7753 11.4918H75.8169C76.6125 10.0903 77.9289 9.40059 79.288 9.40059C81.3377 9.40059 82.7591 10.7177 82.7591 13.0608V20.9058H80.817V13.2247C80.817 11.844 79.9174 11.0234 78.7893 11.0234C77.3667 11.0234 76.1334 12.2573 76.1334 13.9731V20.8973H74.2097V13.2247C74.2097 11.844 73.436 11.0234 72.2859 11.0234C70.9488 11.0234 69.5053 12.2573 69.5053 13.9731V20.8973H67.5608V9.6782ZM85.019 5.34172H87.0479V7.59923H85.019V5.34172ZM85.0667 9.6782H87.01V20.9119H85.0667V9.6782ZM88.6783 9.6782H90.4347V6.13173H92.3584V9.6782H94.6807V11.1787H92.3584V18.2717C92.3584 19.0874 92.7972 19.3173 93.5085 19.3173C93.8391 19.3084 94.1675 19.2595 94.4863 19.1717H94.5487V20.8068C94.035 20.9301 93.5088 20.9933 92.9805 20.9951C91.4748 20.9743 90.4298 20.3677 90.4298 18.7144V11.1787H88.6783V9.6782ZM96.4565 5.34172H98.4011V20.9058H96.4565V5.34172ZM100.222 15.3036C100.222 12.0397 102.376 9.40426 105.6 9.40426C107.273 9.40426 108.569 10.0524 109.448 11.1396C110.368 12.2488 110.827 13.8594 110.827 15.7635H102.206C102.353 17.9647 103.544 19.634 105.719 19.634C107.266 19.634 108.332 18.9002 108.687 17.7091H110.59C110.088 19.8015 108.29 21.2238 105.701 21.2238C102.247 21.2201 100.222 18.5847 100.222 15.3036ZM102.25 14.362H108.752C108.646 12.2035 107.537 10.9011 105.593 10.9011C103.565 10.9011 102.498 12.3686 102.247 14.3583L102.25 14.362ZM111.865 17.4963H113.83C114.06 19.1277 115.315 19.6719 116.925 19.6719C118.702 19.6719 119.455 18.8978 119.455 17.8938C119.455 16.6599 118.514 16.3456 116.522 15.9481C114.322 15.4883 112.341 15.0273 112.341 12.5594C112.341 10.6345 113.845 9.42138 116.459 9.42138C119.282 9.42138 120.682 10.7385 120.934 12.6841H118.996C118.828 11.5334 118.034 10.8852 116.423 10.8852C114.897 10.8852 114.248 11.597 114.248 12.4542C114.248 13.6258 115.336 13.8557 117.239 14.2324C119.476 14.6726 121.395 15.174 121.395 17.7886C121.395 20.0694 119.513 21.2409 116.879 21.2409C113.789 21.2409 112.033 19.7771 111.865 17.4963ZM122.467 17.4963H124.432C124.662 19.1277 125.917 19.6719 127.527 19.6719C129.304 19.6719 130.057 18.8978 130.057 17.8938C130.057 16.6599 129.116 16.3456 127.129 15.9481C124.929 15.4883 122.948 15.0273 122.948 12.5594C122.948 10.6345 124.453 9.42138 127.067 9.42138C129.889 9.42138 131.29 10.7385 131.542 12.6841H129.597C129.43 11.5334 128.635 10.8852 127.03 10.8852C125.504 10.8852 124.855 11.597 124.855 12.4542C124.855 13.6258 125.943 13.8557 127.846 14.2324C130.082 14.6726 132.001 15.174 132.001 17.7886C132.001 20.0694 130.119 21.2409 127.479 21.2409C124.389 21.2409 122.633 19.7771 122.467 17.4963ZM58.498 29.1728H59.0651C59.1446 30.1377 59.8363 30.6134 60.8117 30.6134C61.787 30.6134 62.3871 30.1242 62.3871 29.3538C62.3871 28.7191 62.0815 28.4696 60.7884 28.1626C59.587 27.8789 58.6911 27.5622 58.6911 26.5178C58.6911 25.5395 59.576 24.9525 60.687 24.9525C62.0314 24.9525 62.6425 25.6667 62.7733 26.6193H62.2294C62.15 25.8709 61.5707 25.4404 60.687 25.4404C59.7337 25.4404 59.246 25.8941 59.246 26.5068C59.246 27.1868 59.7911 27.38 60.9925 27.6637C62.172 27.9364 62.9481 28.2544 62.9481 29.366C62.9481 30.3187 62.1879 31.0903 60.8165 31.0903C59.2778 31.0903 58.5542 30.1829 58.498 29.1728ZM64.0664 25.0772H64.6213V26.1999H64.6445C65.0418 25.4514 65.7103 24.9525 66.6967 24.9525C68.0582 24.9525 69.0665 26.0531 69.0665 28.0037C69.0665 29.7512 68.1597 31.0671 66.6514 31.0671C65.6737 31.0671 65.0625 30.6476 64.6445 29.9787H64.6213V32.8269H64.0664V25.0772ZM68.4994 28.0122C68.4994 26.4457 67.8199 25.4245 66.6172 25.4245C65.3131 25.4245 64.5651 26.5484 64.5651 28.0342C64.5651 29.5886 65.2984 30.6024 66.6294 30.6024C67.8871 30.6024 68.4994 29.4112 68.4994 28.022V28.0122ZM69.9172 28.022C69.9172 26.2512 70.9048 24.9647 72.5487 24.9647C74.1925 24.9647 75.1789 26.2573 75.1789 28.022C75.1789 29.7867 74.2011 31.0964 72.5487 31.0964C70.8962 31.0964 69.9172 29.7855 69.9172 28.022ZM74.6118 28.022C74.6118 26.5924 73.898 25.4233 72.5487 25.4233C71.1993 25.4233 70.4843 26.5924 70.4843 28.022C70.4843 29.4516 71.1993 30.6195 72.5487 30.6195C73.898 30.6195 74.6118 29.4455 74.6118 28.022ZM76.8692 26.2341H76.8912C77.0693 25.8487 77.3577 25.5248 77.7199 25.3035C78.0455 25.1129 78.42 25.0224 78.7967 25.043V25.5982C78.514 25.5803 78.231 25.6272 77.9692 25.7351C77.3459 26.0189 76.8692 26.6878 76.8692 27.55V30.9423H76.3131V25.0723H76.8692V26.2341ZM79.5337 25.0772H80.4405V23.3064H80.9967V25.0772H82.0624V25.5419H80.9967V29.9444C80.9967 30.3761 81.1665 30.5119 81.5528 30.5119C81.706 30.5102 81.857 30.4752 81.9952 30.4092H82.0282V30.8861C81.8404 30.9582 81.6403 30.9931 81.4391 30.9888C80.8378 30.9888 80.4405 30.6819 80.4405 29.9897V25.5419H79.5337V25.0772ZM82.7542 29.1728H83.3213C83.4008 30.1377 84.0925 30.6134 85.0679 30.6134C86.0432 30.6134 86.6445 30.1242 86.6445 29.3538C86.6445 28.7191 86.3378 28.4696 85.0447 28.1626C83.8432 27.8789 82.9473 27.5622 82.9473 26.5178C82.9473 25.5395 83.8322 24.9525 84.9432 24.9525C86.2877 24.9525 86.8988 25.6667 87.0295 26.6193H86.4857C86.4062 25.8709 85.8281 25.4404 84.9432 25.4404C83.9911 25.4404 83.5034 25.8941 83.5034 26.5068C83.5034 27.1868 84.0473 27.38 85.2488 27.6637C86.4282 27.9364 87.2043 28.2544 87.2043 29.366C87.2043 30.3187 86.4453 31.0903 85.0728 31.0903C83.5364 31.0903 82.8117 30.1829 82.7542 29.1728ZM90.4322 25.0772H90.9871V25.9956H91.0103C91.3953 25.394 91.9172 24.9635 92.8241 24.9635C93.5501 24.9635 94.1856 25.3304 94.413 26.0409H94.4472C94.8322 25.3719 95.4788 24.9635 96.3869 24.9635C97.3647 24.9635 98.1554 25.5872 98.1554 26.7563V30.9423H97.5993V26.8125C97.5993 25.8489 97.0664 25.4404 96.261 25.4404C95.3431 25.4404 94.5719 26.0299 94.5719 27.1525V30.9436H94.0158V26.8125C94.0158 25.8489 93.4609 25.4404 92.7239 25.4404C92.2673 25.4388 91.8286 25.6179 91.5035 25.9386C91.1783 26.2593 90.9932 26.6957 90.9883 27.1525V30.9436H90.4322V25.0772ZM99.8103 28.0722C99.8213 29.4797 100.457 30.6024 101.897 30.6024C102.951 30.6024 103.439 29.9909 103.677 29.196H104.21C103.966 30.2844 103.201 31.0903 101.897 31.0903C100.173 31.0903 99.2444 29.8197 99.2444 28.022C99.2444 26.2243 100.254 24.9647 101.853 24.9647C102.421 24.9414 102.976 25.1405 103.4 25.5199C104.045 26.1204 104.256 26.9605 104.249 28.0722H99.8103ZM101.851 25.4282C100.582 25.4282 99.935 26.3821 99.8213 27.6184H103.677C103.644 26.4616 103.145 25.4282 101.851 25.4282ZM105.094 28.022C105.094 26.0653 106.194 24.9476 107.556 24.9476C108.497 24.9476 109.165 25.3891 109.539 26.1387H109.562V22.8307H110.122V30.9423H109.566V29.964H109.543C109.113 30.6892 108.489 31.0867 107.57 31.0867C106.002 31.0903 105.094 29.7745 105.094 28.022ZM109.616 28.033C109.616 26.5472 108.902 25.4233 107.598 25.4233C106.396 25.4233 105.659 26.4677 105.659 28.033C105.659 29.4406 106.27 30.6207 107.587 30.6207C108.86 30.6256 109.619 29.5922 109.619 28.0379L109.616 28.033ZM111.569 22.8307H112.125V23.7418H111.569V22.8307ZM111.569 25.0772H112.125V30.9472H111.569V25.0772ZM113.3 28.022C113.3 26.2512 114.184 24.9647 115.867 24.9647C117.089 24.9647 117.944 25.5994 118.124 26.7795H117.579C117.387 25.8489 116.786 25.4343 115.868 25.4343C114.451 25.4343 113.873 26.6144 113.873 28.022C113.873 29.4296 114.462 30.6085 115.857 30.6085C116.877 30.6085 117.547 29.9273 117.672 28.9637H118.193C118.046 30.2343 117.206 31.0964 115.857 31.0964C114.156 31.0903 113.3 29.7855 113.3 28.022ZM119.247 22.8307H119.802V23.7418H119.247V22.8307ZM119.247 25.0772H119.802V30.9472H119.247V25.0772ZM121.81 26.0653H121.832C122.219 25.4416 122.876 24.9647 123.873 24.9647C124.871 24.9647 125.665 25.5884 125.665 26.7575V30.9436H125.109V26.8125C125.109 25.8489 124.588 25.4404 123.772 25.4404C122.728 25.4404 121.816 26.1742 121.816 27.1525V30.9436H121.26V25.0735H121.816L121.81 26.0653ZM127.321 28.0722C127.332 29.4797 127.968 30.6024 129.408 30.6024C130.462 30.6024 130.95 29.9909 131.187 29.196H131.721C131.477 30.2844 130.712 31.0903 129.408 31.0903C127.684 31.0903 126.754 29.8197 126.754 28.0159C126.754 26.2121 127.764 24.9586 129.362 24.9586C129.931 24.9399 130.484 25.1434 130.905 25.526C131.55 26.1265 131.76 26.9666 131.76 28.0783L127.321 28.0722ZM129.362 25.4282C128.093 25.4282 127.446 26.3821 127.332 27.6184H131.187C131.154 26.4616 130.656 25.4282 129.362 25.4282Z" fill="white"/>
</g>
<defs>
<clipPath id="clip0_7_70">
<rect width="132" height="35" fill="white"/>
</clipPath>
</defs>
</svg>
