<svg width="48" height="34" viewBox="0 0 48 34" fill="none" xmlns="http://www.w3.org/2000/svg">
<path d="M0 20.543L8.7596 15.1772C8.7596 15.1772 12.0455 13.2803 12.0455 7.15759V1.03584C12.0455 1.03584 12.2579 -0.638187 10.8043 0.270011L3.83631 4.62053C3.83631 4.62053 0.0110823 6.3191 0.0110823 12.3486L0 20.543Z" fill="white"/>
<path d="M0 13.457L8.7596 18.8228C8.7596 18.8228 12.0455 20.7197 12.0455 26.8424V32.9651C12.0455 32.9651 12.2579 34.6392 10.8043 33.731L3.83631 29.3804C3.83631 29.3804 0.0110823 27.6799 0.0110823 21.6514L0 13.458V13.457Z" fill="white"/>
<path d="M23.2866 23.8431V26.1808C22.6872 26.3841 22.0601 26.4823 21.4312 26.4734C20.5576 26.5255 19.7005 26.2054 19.0485 25.5849C18.4686 24.9918 18.1786 24.0463 18.1777 22.7474V15.2952H16.1625V13.0566H18.1777V7.52792H21.0295V13.0566H23.2053V15.2972H21.0295V22.5422C20.9833 22.9486 21.0997 23.3571 21.35 23.6683C21.6261 23.8883 21.9678 23.9943 22.3123 23.9668C22.6401 23.9639 22.9661 23.9226 23.2857 23.8441L23.2866 23.8431Z" fill="white"/>
<path d="M29.6349 20.6038L28.3863 21.9558V26.2298H25.5455V7.52676H28.3863V18.2533L29.2341 17.133L32.6243 13.0555H36.0598L31.4672 18.5351L36.541 26.2307H33.2431L29.6349 20.6038Z" fill="white"/>
<path d="M47.9991 21.8469C47.9797 22.6804 47.7285 23.4895 47.2778 24.1728C46.8096 24.8876 46.1797 25.4659 45.4455 25.8527C44.6679 26.27 43.8081 26.4831 42.9372 26.4742C41.8392 26.5116 40.754 26.2072 39.8167 25.5975C38.9726 25.0231 38.3095 24.1944 37.9096 23.2175C37.4783 22.1552 37.2641 21.0074 37.2798 19.8508V19.4384C37.2631 18.2808 37.4802 17.1331 37.9161 16.0717C38.3178 15.0967 38.9809 14.2681 39.8231 13.6917C41.5769 12.6186 43.713 12.5253 45.5434 13.4423C46.2813 13.839 46.8982 14.4487 47.324 15.2018C47.7599 15.9882 47.9935 16.8827 48 17.7958H45.3088C45.2913 17.3461 45.1777 16.9072 44.9764 16.5116C44.7824 16.1316 44.4952 15.8135 44.1461 15.5926C43.7656 15.3579 43.3316 15.2401 42.892 15.2519C41.877 15.2519 41.1632 15.6456 40.7513 16.433C40.308 17.3638 40.0946 18.3986 40.1325 19.4404V19.8547C40.1325 22.6471 41.056 24.0432 42.9031 24.0432C43.315 24.0491 43.7232 23.9529 44.0944 23.7634C44.4398 23.5886 44.7363 23.3196 44.9533 22.9838C45.1675 22.648 45.2904 22.2563 45.3088 21.8518H48.0009L47.9991 21.8469Z" fill="white"/>
</svg>
