<svg width="56" height="35" viewBox="0 0 56 35" fill="none" xmlns="http://www.w3.org/2000/svg">
<path d="M25.5774 30.0824C25.7683 29.0212 25.8154 28.0689 26.2519 27.0682C26.5742 26.3301 27.3665 26.0094 27.5016 25.1321C27.7793 23.3231 26.749 21.9679 27.2462 19.8794C36.7779 18.915 46.3183 17.9506 56 16.9716C55.8971 18.2385 55.8277 20.9031 55.1135 21.9885C54.5469 22.85 53.8824 22.7217 53.0505 23.3909C50.4047 25.5145 50.6862 27.9443 53.6096 29.7206C53.3505 31.4062 53.0654 33.1051 52.5546 35C43.5498 33.3592 34.6318 31.7341 25.5774 30.0848V30.0824ZM45.3748 23.3098C46.6555 23.9838 46.1757 17.6831 43.5014 21.8662C42.1525 23.9753 45.7368 28.559 43.463 29.3394C42.9819 29.0031 43.4196 28.3424 42.9497 27.9878C41.3739 27.9878 42.7526 33.306 45.1293 29.6286C46.6877 27.217 42.6943 23.5409 44.8975 22.1179C45.3723 22.3974 45.0214 22.9964 45.3748 23.3098ZM33.0262 29.3092C34.0664 28.5529 33.454 27.1493 34.4012 26.3301C34.8884 27.4155 34.0763 28.6062 34.9628 29.5645C35.3571 27.9963 35.0112 26.4777 35.2517 24.9252C35.4513 23.6377 36.0675 22.464 36.2559 21.1729C35.1599 21.7428 35.4005 22.896 34.7161 23.4829C34.2635 22.781 35.026 22.0296 34.6739 21.4391C33.723 21.0821 33.0932 28.3533 33.0275 29.3104L33.0262 29.3092ZM40.1428 21.0107C39.5923 21.7392 40.3337 23.2227 40.3424 24.1496C40.3597 26.0191 39.6456 28.2105 39.3344 30.0751C41.0292 30.8689 41.4966 23.5724 41.7049 22.3987C42.5034 22.1942 43.2497 21.9171 42.698 20.7966C41.8512 20.868 40.9933 20.9394 40.1428 21.0107ZM36.6775 28.2528C37.5205 27.2219 38.4045 25.2665 37.461 24.3565C37.6929 23.7866 37.5404 23.1041 37.9049 22.4979C38.3884 22.1567 39.6369 22.3648 39.0108 21.0761C38.4033 21.0652 37.8032 20.9466 37.1436 21.2794C36.6378 24.0237 36.101 26.7863 35.8195 29.5633C36.5696 29.8259 37.1275 30.08 37.7487 29.8767C38.469 28.8324 37.378 28.7756 36.6762 28.2528H36.6775ZM50.8709 22.2728C50.7048 21.571 49.734 21.9897 49.4773 21.3907C50.3584 21.2778 50.9221 21.0019 51.1684 20.563C50.701 20.4384 48.0342 20.0984 47.878 21.0289C47.7379 21.8699 48.7248 21.7706 48.5946 22.3333C47.9449 22.6366 47.5829 23.1457 47.5085 23.8604C48.5289 23.8785 49.5579 24.175 50.5857 23.6728C50.1828 23.086 49.5344 23.5482 49.1066 23.1162C49.5852 22.5995 50.4531 22.8948 50.8721 22.2728H50.8709ZM31.1876 27.966C31.2496 26.1111 31.5893 24.3444 32.115 22.5197C32.7646 22.9311 32.1918 23.6426 32.8762 23.9318C33.2581 22.9746 33.5048 22.1107 32.7225 21.2878C30.9111 22.2401 29.2609 28.2698 31.3425 29.2547C32.4286 28.3242 32.5811 27.8789 32.2117 26.8056C31.5645 27.2182 32.1422 27.9455 31.1863 27.9648L31.1876 27.966ZM48.9368 24.4436C46.8365 24.3299 46.1856 26.9266 48.3702 27.2219C50.344 27.4881 51.2056 24.5658 48.9368 24.4436ZM47.568 27.7809C45.6364 28.2141 46.3753 30.063 47.94 30.207C49.9385 30.391 50.1555 27.5631 48.8239 27.8729C48.3417 28.4718 49.4699 28.5989 48.9727 29.17C48.3156 29.3963 47.666 29.2559 47.0039 28.945C47.0101 28.4065 47.8619 28.3545 47.5668 27.7821L47.568 27.7809ZM30.0804 21.617C29.1729 21.6593 28.5716 21.3617 28.1128 22.0018C28.9757 24.2125 27.5351 26.3107 27.8611 28.6291C29.463 27.2485 28.5988 23.4236 30.0817 21.6158L30.0804 21.617ZM30.6941 21.7368C29.8721 23.19 29.2051 27.8644 29.7258 29.0127C30.1436 26.4184 30.6309 24.106 30.6941 21.7368ZM49.1699 30.737C48.3503 30.6124 48.7992 31.5139 48.9988 31.4207C49.3248 31.2598 49.3819 31.0311 49.1699 30.737Z" fill="white"/>
<path d="M12.2047 29.448C7.93606 20.2663 3.97361 11.0034 0 1.61351C1.36132 1.33763 2.56394 1.25655 3.9141 1.2021C6.53011 7.24624 9.14116 13.2759 11.8675 19.5753C13.328 15.408 13.964 10.8171 14.9125 6.51417C15.556 3.59677 15.1134 -0.223325 18.8402 0.0102126C16.714 9.84783 14.5294 19.637 12.2047 29.448Z" fill="white"/>
<path d="M35.0967 11.8399C35.8096 14.3386 36.7048 17.7364 33.666 18.5677C31.1144 19.2647 28.238 17.6735 27.0528 15.5196C25.5501 12.7873 26.537 9.41616 29.2609 7.78987C30.3854 7.11829 35.2802 5.97239 34.4966 8.50863C26.1304 5.31291 26.4936 19.7983 33.8928 17.2838C34.0627 15.9467 33.8681 14.6302 33.5717 13.3548C32.8824 12.9652 32.1757 13.3536 31.4504 13.0596C31.1132 11.4672 34.235 11.8919 35.0955 11.8399H35.0967Z" fill="white"/>
<path d="M21.0434 18.4914C22.8015 18.2289 24.4095 18.3583 25.9518 18.0014C26.3808 18.3003 26.3858 18.6633 26.2283 19.1328C23.9694 19.5188 21.6683 19.5986 19.2531 19.8104C18.9159 15.9455 18.5873 12.1799 18.2451 8.24242C19.2692 7.97621 25.3989 6.82909 25.1856 8.747C23.5329 9.11728 21.8394 8.78694 20.2003 9.37622C20.0391 10.5742 20.4024 11.7273 20.4644 12.9241C21.9509 13.3185 23.5925 12.1956 25.1199 13.4988C23.6123 14.2321 22.1158 13.9066 20.6467 14.3071C20.6777 15.7096 20.6132 17.037 21.0434 18.4902V18.4914Z" fill="white"/>
<path d="M51.1821 6.74923C51.2614 7.2635 51.0432 7.66523 50.8845 8.08148C49.6236 8.4094 48.9628 5.34559 47.2122 7.41475C45.376 9.58435 50.2386 10.5548 51.2676 11.7806C54.542 15.6854 47.8197 19.6144 45.5236 15.689C45.562 15.1747 45.7628 14.6254 46.0778 13.8413C46.7758 15.0961 49.1042 17.4012 50.2919 15.136C51.4462 12.9337 47.4639 12.0032 46.3741 10.9372C42.91 7.54544 48.2053 3.46156 51.1833 6.74923H51.1821Z" fill="white"/>
<path d="M36.4667 18.1321C37.6978 13.8764 38.9302 9.61944 40.1614 5.36374C40.2568 5.35406 40.3523 5.34317 40.4478 5.33349C41.9145 9.34476 43.3812 13.356 44.8528 17.3794C43.008 18.4285 42.7241 15.1723 42.1525 14.168C40.8755 14.2829 39.6605 14.393 38.5285 14.4959C37.6297 15.6963 37.947 17.2983 36.9031 18.3051L36.4667 18.1321ZM40.0758 8.64536C39.5055 10.4495 38.9563 11.9935 38.6413 13.7118C39.8464 13.7687 40.8408 13.7711 41.8847 13.3246C41.3169 11.7951 40.9263 10.2753 40.0758 8.64657V8.64536Z" fill="white"/>
<path d="M47.5283 25.7323C48.3131 25.3512 48.964 25.3766 49.6955 25.7214C48.7632 26.3168 48.7248 26.318 47.5283 25.7323Z" fill="white"/>
</svg>
