<svg width="56" height="16" viewBox="0 0 56 16" fill="none" xmlns="http://www.w3.org/2000/svg">
<path d="M6.08658 16V10.1902L0 0H6.58778L9.25518 5.0951L11.9146 0H18.5023L12.4157 10.1825V15.9923H6.0947L6.08658 16Z" fill="white"/>
<path d="M24.7182 16L18.2356 0H24.8233L27.9838 8.89144L31.1686 0H37.7564L31.2736 16H24.7182Z" fill="white"/>
<path d="M43.5762 16V10.1902L37.4896 0H44.0774L46.7448 5.0951L49.4122 0H56L49.9134 10.1825V15.9923H43.5924L43.5762 16Z" fill="url(#paint0_linear_135_389)"/>
<path d="M55.2806 16C55.1836 16 55.0947 15.9846 55.0058 15.9462C54.9168 15.9078 54.8441 15.8617 54.7794 15.8002C54.7148 15.7387 54.6663 15.6695 54.6259 15.585C54.5854 15.5005 54.5693 15.4159 54.5693 15.3237C54.5693 15.2315 54.5854 15.147 54.6259 15.0624C54.6663 14.9779 54.7148 14.9087 54.7794 14.8472C54.8441 14.7858 54.9168 14.7397 55.0058 14.7013C55.0947 14.6628 55.1836 14.6475 55.2806 14.6475C55.3776 14.6475 55.4665 14.6628 55.5554 14.7013C55.6443 14.7397 55.7171 14.7858 55.7818 14.8472C55.8465 14.9087 55.8949 14.9779 55.9353 15.0624C55.9758 15.147 55.9919 15.2315 55.9919 15.3237C55.9919 15.4159 55.9758 15.5005 55.9353 15.585C55.8949 15.6695 55.8465 15.7387 55.7818 15.8002C55.7171 15.8617 55.6443 15.9078 55.5554 15.9462C55.4665 15.9846 55.3776 16 55.2806 16ZM55.2806 15.8463C55.3857 15.8463 55.4746 15.8232 55.5554 15.7771C55.6363 15.731 55.7009 15.6695 55.7494 15.5927C55.7979 15.5159 55.8221 15.4236 55.8221 15.3237C55.8221 15.2238 55.7979 15.1316 55.7494 15.0548C55.7009 14.9779 55.6363 14.9164 55.5554 14.8703C55.4746 14.8242 55.3776 14.8011 55.2806 14.8011C55.1836 14.8011 55.0866 14.8242 55.0058 14.8703C54.925 14.9164 54.8603 14.9779 54.8118 15.0548C54.7633 15.1316 54.739 15.2238 54.739 15.3237C54.739 15.4236 54.7633 15.5159 54.8118 15.5927C54.8603 15.6695 54.925 15.731 55.0058 15.7771C55.0866 15.8232 55.1755 15.8463 55.2806 15.8463ZM54.9735 15.7157V14.9241H55.3695C55.4584 14.9241 55.5312 14.9472 55.5797 14.9933C55.6282 15.0394 55.6443 15.1009 55.6443 15.1777C55.6443 15.3007 55.5878 15.3775 55.4746 15.4083C55.4989 15.4236 55.515 15.4544 55.5312 15.4928L55.6201 15.708H55.4584L55.3695 15.4774C55.3695 15.4774 55.3452 15.4467 55.3372 15.439C55.321 15.439 55.2968 15.4313 55.2644 15.4313H55.1351V15.708H54.9735V15.7157ZM55.1351 15.316H55.2725C55.3372 15.316 55.3857 15.316 55.4261 15.293C55.4665 15.2699 55.4827 15.2392 55.4827 15.1777C55.4827 15.1316 55.4746 15.0932 55.4504 15.0778C55.4261 15.0624 55.3857 15.0471 55.3372 15.0471H55.1351V15.316Z" fill="white"/>
<defs>
<linearGradient id="paint0_linear_135_389" x1="-108.377" y1="13.76" x2="-3.75171" y2="-62.6525" gradientUnits="userSpaceOnUse">
<stop stop-color="#B1B1B1"/>
<stop offset="1" stop-color="white"/>
</linearGradient>
</defs>
</svg>
