<svg width="171" height="54" viewBox="0 0 171 54" fill="none" xmlns="http://www.w3.org/2000/svg">
<path d="M0.346313 0.818634H4.28501V8.54088H11.2409V0.818634H15.1796V21.3539H11.2409V12.3743H4.28501V21.3539H0.346313V0.818634Z" fill="white"/>
<path d="M19.606 0.818634H30.8747V4.65204H23.5447V8.31317H30.8747V12.1446H23.5447V17.5224H30.8747V21.3539H19.606V0.818634Z" fill="white"/>
<path d="M35.9618 0.818634H39.7273L48.5819 14.3187V0.818634H52.5206V21.3539H48.7252L39.9005 7.8835V21.3539H35.9618V0.818634Z" fill="white"/>
<path d="M57.55 0.818634H62.5236C66.1458 0.818634 68.7033 1.24831 70.9463 3.42044C72.8152 5.22229 73.9357 8.08151 73.9357 11.3427C73.9357 14.8612 72.6141 17.7779 70.399 19.4946C68.0425 21.3242 65.5985 21.3539 62.5793 21.3539H57.548V0.818634H57.55ZM61.4867 4.65204V17.5224H63.5565C65.712 17.5224 67.2365 17.2353 68.4426 15.9503C69.3919 14.9206 69.9671 13.2614 69.9671 11.2595C69.9671 6.96871 67.5808 4.65204 63.0968 4.65204H61.4867Z" fill="white"/>
<path d="M78.5331 0.818634H89.8019V4.65204H82.4718V8.31317H89.8019V12.1446H82.4718V17.5224H89.8019V21.3539H78.5331V0.818634Z" fill="white"/>
<path d="M95.1478 0.818634H99.9482C102.563 0.818634 104.404 1.13346 105.784 2.47793C106.819 3.47984 107.451 5.02429 107.451 6.76872C107.451 9.45765 106.1 11.2872 103.485 12.2317L108.371 21.3559H104.088L99.4606 12.6614H99.0865V21.3559H95.1478V0.818634ZM99.0865 8.85571H100.898C102.681 8.85571 103.6 8.14091 103.6 6.73902C103.6 5.33714 102.651 4.65204 100.782 4.65204H99.0865V8.85571Z" fill="white"/>
<path d="M114.523 15.4335C115.472 17.2076 116.565 18.1224 117.944 18.1224C119.323 18.1224 120.33 17.265 120.33 16.2057C120.33 15.4612 119.841 14.6038 119.009 13.9167C114.726 10.3427 112.196 8.39632 112.196 5.47969C112.196 2.56305 114.756 0.303802 117.858 0.303802C120.474 0.303802 122.199 1.70569 123.837 3.59269L120.905 6.16677C119.928 4.79459 118.921 4.05008 117.801 4.05008C116.766 4.05008 116.047 4.65004 116.047 5.47969C116.047 6.30933 116.65 6.79445 117.255 7.30927C121.109 10.6833 124.183 12.2852 124.183 16.0314C124.183 19.4629 121.596 21.8667 117.858 21.8667C114.839 21.8667 112.742 20.4074 111.217 17.4056L114.523 15.4315V15.4335Z" fill="white"/>
<path d="M149.276 11.1427C149.276 17.1779 144.534 21.839 138.611 21.839C132.688 21.839 127.802 17.0334 127.802 11.0575C127.802 5.0817 132.69 0.303802 138.555 0.303802C144.42 0.303802 149.278 4.87973 149.278 11.1427H149.276ZM131.77 11.1427C131.77 15.3186 134.933 18.0927 138.583 18.0927C142.233 18.0927 145.31 15.0315 145.31 11.1149C145.31 7.19838 142.464 4.05008 138.525 4.05008C134.817 4.05008 131.77 6.90929 131.77 11.1427Z" fill="white"/>
<path d="M154.391 0.818634H158.157L167.012 14.3187V0.818634H170.95V21.3539H167.155L158.33 7.8835V21.3539H154.391V0.818634Z" fill="white"/>
<path d="M36.2583 28.8603H53.5197L52.5565 34.3946H42.0002L41.216 38.723H49.5611L48.5979 44.186H40.2528L38.577 53.6942H31.8718L36.2583 28.8583V28.8603Z" fill="#004185"/>
<path d="M52.2698 48.8708L54.9447 33.6857C55.5518 30.4206 57.335 28.8603 60.5433 28.8603H70.4209C73.6311 28.8603 74.9149 30.4206 74.3078 33.6857L71.6329 48.8708C71.0617 52.1359 69.2427 53.6962 66.0344 53.6962H56.1568C52.9465 53.6962 51.6986 52.1359 52.2698 48.8708ZM59.7233 48.16H64.4661C64.9298 48.16 65.0731 48.0174 65.1786 47.5224L67.3897 35.0341C67.4614 34.5371 67.3539 34.3946 66.8902 34.3946H62.1474C61.6837 34.3946 61.5046 34.5371 61.4349 35.0341L59.2238 47.5224C59.1163 48.0194 59.2596 48.16 59.7233 48.16Z" fill="#004185"/>
<path d="M79.0526 28.8603H93.4958C96.7061 28.8603 97.9898 30.4206 97.3828 33.6857L96.2424 40.1427C95.7787 42.8752 94.4233 44.3998 92.1405 44.8255L94.8512 53.6962H88.361L85.6503 45.3938H82.8321L81.3693 53.6962H74.6641L79.0506 28.8603H79.0526ZM88.9322 40.1427C89.3959 40.1427 89.5751 40.0001 89.6805 39.5031L90.4647 34.8916C90.5722 34.3946 90.4647 34.254 90.001 34.254H84.8303L83.7596 40.1427H88.9302H88.9322Z" fill="#004185"/>
<path d="M98.1689 48.8708L100.844 33.6857C101.451 30.4206 103.304 28.8603 106.514 28.8603H115.964C119.174 28.8603 120.386 30.4206 119.779 33.6857L118.959 38.3329H112.254L112.861 35.0341C112.933 34.5371 112.825 34.3946 112.326 34.3946H108.046C107.583 34.3946 107.404 34.5371 107.334 35.0341L105.123 47.5224C105.015 48.0194 105.159 48.16 105.622 48.16H109.901C110.401 48.16 110.544 48.0174 110.65 47.5224L111.221 44.2236H117.926L117.106 48.8708C116.535 52.1359 114.682 53.6962 111.508 53.6962H102.058C98.8476 53.6962 97.5997 52.1359 98.1709 48.8708H98.1689Z" fill="#004185"/>
<path d="M123.881 28.8603H141.14L140.177 34.3946H129.621L128.942 38.2616H137.287L136.324 43.7246H127.979L127.195 48.16H137.751L136.752 53.6942H119.49L123.877 28.8583L123.881 28.8603Z" fill="#004185"/>
<path d="M32.2699 34.4639L0 28.9217H33.1675L32.2699 34.4639Z" fill="#999999"/>
<path d="M143.256 34.4639L171 28.9217H144.068L143.256 34.4639Z" fill="#999999"/>
</svg>
