<svg width="94" height="117" viewBox="0 0 94 117" fill="none" xmlns="http://www.w3.org/2000/svg">
<g clip-path="url(#clip0_9_13)">
<path d="M71.4167 98.8541C71.6618 98.5866 71.905 98.3154 72.1482 98.0405C71.9068 98.3154 71.6618 98.5847 71.4167 98.8541Z" fill="#004185"/>
<path d="M39.753 112.282C39.9133 112.379 40.0717 112.476 40.2284 112.569C44.4572 115.113 47.4496 116.436 47.4496 116.436C47.4496 116.436 47.7334 116.309 48.2456 116.06C48.3046 116.031 48.3673 116.001 48.4318 115.968C48.4981 115.935 48.5681 115.901 48.6418 115.864C48.7155 115.827 48.7911 115.791 48.8703 115.75C49.1817 115.595 49.541 115.41 49.9409 115.201C50.2504 115.038 50.5858 114.858 50.9451 114.662C51.0501 114.605 51.1552 114.547 51.2639 114.488C51.3984 114.413 51.5366 114.338 51.6766 114.259C52.2847 113.918 52.9462 113.539 53.6501 113.117C54.2674 112.749 54.916 112.351 55.5941 111.923C55.7083 111.849 55.8244 111.776 55.9423 111.701C56.1524 111.567 56.3661 111.43 56.5817 111.289C56.6941 111.215 56.8084 111.14 56.9226 111.065C57.5362 110.66 58.1664 110.235 58.8131 109.784C59.1651 109.539 59.5207 109.286 59.8819 109.027C60.0624 108.897 60.243 108.767 60.4236 108.633C61.6932 107.703 63.0033 106.691 64.3226 105.595C65.454 104.657 66.5927 103.657 67.7223 102.598C68.0982 102.244 68.4741 101.885 68.8481 101.518C69.4285 100.949 70.0071 100.362 70.5765 99.7612C70.8603 99.4625 71.1422 99.1583 71.4204 98.8523C71.6655 98.5848 71.9106 98.3136 72.152 98.0387C72.3307 97.8354 72.5094 97.6301 72.6863 97.4231C73.0419 97.009 73.392 96.5894 73.7384 96.1624C73.9117 95.9499 74.083 95.7337 74.2544 95.5174C74.5953 95.085 74.9269 94.647 75.2476 94.2073C85.1904 80.569 85.1757 64.0264 85.1757 64.0264V17.3965L78.7099 23.8262H52.4395L47.3077 19.0255L42.176 23.8262H15.9038L9.43799 17.3965V64.0319C9.43799 64.0319 9.87285 75.3211 15.1409 86.7111C15.3252 87.1105 15.5168 87.51 15.714 87.9095C15.8743 88.2338 16.0383 88.5581 16.206 88.8824C16.8785 90.1779 17.6174 91.4661 18.43 92.7286C19.0399 93.6759 19.6904 94.6086 20.3851 95.5229C21.1903 96.582 22.0361 97.6027 22.9113 98.5866C23.1877 98.8963 23.4659 99.2005 23.746 99.5028C24.7023 100.531 25.6882 101.517 26.6887 102.457C27.2268 102.96 27.7685 103.452 28.3121 103.93C28.3563 103.968 28.4005 104.007 28.4447 104.045C28.8833 104.428 29.3237 104.804 29.7622 105.17C30.4311 105.729 31.1018 106.268 31.7688 106.786C31.9568 106.933 32.1447 107.078 32.3327 107.221C33.2706 107.937 34.1993 108.611 35.1077 109.247C35.2901 109.374 35.4707 109.5 35.6494 109.623C36.0087 109.87 36.3662 110.112 36.7181 110.347C36.895 110.464 37.0682 110.579 37.2433 110.693C38.113 111.263 38.9514 111.792 39.7511 112.28L39.753 112.282ZM16.3902 30.3861H78.2197V66.1868C78.2197 66.1868 78.2326 80.5763 69.3032 91.8948C60.3738 103.213 47.422 108.969 47.422 108.969C47.422 108.969 33.6981 102.896 25.327 91.8948C16.9559 80.8933 16.3902 66.1868 16.3902 66.1868V30.3861Z" fill="black"/>
<path d="M27.5842 89.8115C31.4979 94.9549 36.7476 98.8505 40.4623 101.212L41.8959 102.123V71.0554H52.714V102.198L54.1531 101.267C57.737 98.9494 62.8816 95.0832 67.0699 89.7748L67.2597 89.5256V33.6276H52.714V56.5926H41.8959V33.6276H27.3502V89.1884L27.3704 89.5146L27.5842 89.8115Z" fill="white"/>
<path d="M15.9461 94.3062C15.1151 93.0143 14.3209 91.6419 13.5857 90.2255C13.5765 90.209 13.5691 90.1925 13.5618 90.1779L6.52292 97.6044H15.397L0 116.452L0.503038 117L20.6375 100.452C19.7143 99.4111 18.8372 98.3484 18.032 97.2893C17.3097 96.3401 16.6076 95.336 15.9443 94.3062H15.9461Z" fill="white"/>
<path d="M84.3796 14.0377L76.4195 14.0396L90.4824 0L75.7856 0.0274854L56.8378 18.9759L67.8678 18.921L65.7009 20.8944H77.4864L84.3796 14.0377Z" fill="white"/>
<path d="M94 116.452L78.6048 97.6026H87.4789L80.9468 90.7129C79.9776 92.4701 78.8812 94.22 77.6319 95.9315C77.2873 96.4042 76.9299 96.8751 76.5705 97.3314C76.3918 97.5586 76.2112 97.784 76.0288 98.0094C75.6713 98.451 75.2991 98.8944 74.9251 99.3305C74.739 99.5467 74.5529 99.7611 74.3649 99.9736C74.142 100.227 73.9172 100.476 73.6905 100.723L93.497 117L94 116.452Z" fill="white"/>
<path d="M28.8317 20.8944L26.6647 18.921L37.6947 18.9759L18.7469 0.0274854L4.05011 0L18.1112 14.0396L10.2303 14.0377L17.1254 20.8944H28.8317Z" fill="white"/>
</g>
<defs>
<clipPath id="clip0_9_13">
<rect width="94" height="117" fill="white"/>
</clipPath>
</defs>
</svg>
