<svg width="40" height="50" viewBox="0 0 40 50" fill="none" xmlns="http://www.w3.org/2000/svg">
<path d="M30.3901 42.2453C30.4944 42.131 30.5979 42.0151 30.7014 41.8977C30.5987 42.0151 30.4944 42.1302 30.3901 42.2453Z" fill="#004185"/>
<path d="M16.9161 47.9836C16.9844 48.0251 17.0518 48.0666 17.1184 48.1066C18.9179 49.1935 20.1913 49.7588 20.1913 49.7588C20.1913 49.7588 20.3121 49.7048 20.5301 49.5983C20.5551 49.5858 20.5818 49.5732 20.6092 49.5591C20.6375 49.545 20.6673 49.5302 20.6986 49.5145C20.73 49.4988 20.7621 49.4832 20.7959 49.466C20.9284 49.3994 21.0813 49.3203 21.2514 49.231C21.3832 49.1613 21.5259 49.0846 21.6788 49.0008C21.7235 48.9765 21.7681 48.9515 21.8144 48.9264C21.8716 48.8943 21.9305 48.8622 21.99 48.8285C22.2488 48.6829 22.5303 48.5208 22.8298 48.3407C23.0925 48.1833 23.3685 48.0134 23.657 47.8301C23.7057 47.7988 23.7551 47.7675 23.8052 47.7354C23.8946 47.6782 23.9856 47.6195 24.0773 47.5592C24.1251 47.5279 24.1738 47.4958 24.2224 47.4637C24.4835 47.2906 24.7516 47.1089 25.0269 46.9163C25.1766 46.8114 25.328 46.7033 25.4816 46.5929C25.5585 46.5373 25.6353 46.4817 25.7122 46.4245C26.2524 46.0267 26.8099 45.5945 27.3713 45.1262C27.8527 44.7253 28.3373 44.2978 28.818 43.8451C28.9779 43.694 29.1379 43.5405 29.2971 43.3839C29.5441 43.1404 29.7903 42.8898 30.0325 42.633C30.1533 42.5053 30.2733 42.3753 30.3917 42.2446C30.4959 42.1302 30.6002 42.0143 30.7029 41.8969C30.779 41.81 30.8551 41.7223 30.9303 41.6338C31.0817 41.4568 31.2306 41.2775 31.3781 41.095C31.4518 41.0042 31.5247 40.9118 31.5976 40.8194C31.7427 40.6346 31.8838 40.4474 32.0202 40.2595C36.2512 34.4312 36.245 27.3617 36.245 27.3617V7.43438L33.4936 10.1821H22.3147L20.1309 8.13052L17.9472 10.1821H6.76755L4.01615 7.43438V27.3641C4.01615 27.3641 4.2012 32.1885 6.44294 37.056C6.52135 37.2267 6.60289 37.3974 6.68679 37.5681C6.75501 37.7067 6.82479 37.8453 6.89615 37.9839C7.18234 38.5376 7.49677 39.088 7.84255 39.6276C8.10209 40.0324 8.37888 40.431 8.67448 40.8217C9.01713 41.2744 9.37703 41.7105 9.74948 42.131C9.8671 42.2634 9.98549 42.3933 10.1047 42.5226C10.5116 42.9619 10.9311 43.3831 11.3569 43.7849C11.5858 44.0002 11.8164 44.21 12.0477 44.4144C12.0665 44.4309 12.0853 44.4473 12.1041 44.4638C12.2907 44.6274 12.4781 44.7879 12.6648 44.9446C12.9494 45.1834 13.2348 45.4136 13.5186 45.6352C13.5986 45.6979 13.6786 45.7597 13.7586 45.8208C14.1577 46.127 14.5529 46.4152 14.9394 46.6869C15.0171 46.7409 15.0939 46.7949 15.17 46.8474C15.3229 46.9531 15.475 47.0565 15.6247 47.1567C15.7 47.2068 15.7737 47.2562 15.8482 47.3047C16.2183 47.5482 16.5751 47.7745 16.9154 47.9828L16.9161 47.9836ZM6.97456 12.9855H33.285V28.2849C33.285 28.2849 33.2905 34.4343 29.4907 39.2713C25.691 44.1082 20.1796 46.5678 20.1796 46.5678C20.1796 46.5678 14.3396 43.9728 10.7774 39.2713C7.21527 34.5698 6.97456 28.2849 6.97456 28.2849V12.9855Z" fill="#004185"/>
<path d="M11.738 38.3809C13.4034 40.579 15.6373 42.2438 17.218 43.2531L17.828 43.6423V30.3655H22.4315V43.6744L23.0439 43.2766C24.5689 42.2861 26.7581 40.6338 28.5404 38.3653L28.6212 38.2588L28.6212 14.3707H22.4315V24.1848H17.828V14.3707H11.6384V38.1147L11.647 38.2541L11.738 38.3809Z" fill="white"/>
<path d="M6.78559 40.3018C6.43196 39.7497 6.09401 39.1632 5.78116 38.5579C5.77724 38.5509 5.7741 38.5438 5.77097 38.5376L2.77571 41.7113H6.55193L0 49.7659L0.214059 50L8.7819 42.9282C8.38907 42.4834 8.01584 42.0292 7.67319 41.5766C7.36582 41.171 7.06708 40.7419 6.7848 40.3018H6.78559Z" fill="white"/>
<path d="M35.9062 5.99903L32.5189 5.99981L38.5032 0L32.2492 0.0117459L24.1863 8.10938L28.8799 8.08589L27.9578 8.92924H32.9729L35.9062 5.99903Z" fill="white"/>
<path d="M40 49.7659L33.4489 41.7105H37.2251L34.4454 38.7662C34.033 39.5172 33.5665 40.265 33.0349 40.9964C32.8882 41.1984 32.7361 41.3996 32.5832 41.5946C32.5072 41.6917 32.4303 41.788 32.3527 41.8844C32.2006 42.0731 32.0422 42.2626 31.883 42.4489C31.8038 42.5413 31.7246 42.633 31.6446 42.7238C31.5498 42.8319 31.4541 42.9384 31.3577 43.0441L39.7859 50L40 49.7659Z" fill="white"/>
<path d="M12.2688 8.92924L11.3467 8.08589L16.0403 8.10938L7.97742 0.0117459L1.72345 0L7.7069 5.99981L4.35331 5.99903L7.28741 8.92924H12.2688Z" fill="white"/>
</svg>
